<?xml version="1.0" encoding="utf-8"?>
<!-- Generator: Adobe Illustrator 19.1.0, SVG Export Plug-In . SVG Version: 6.00 Build 0)  -->
<svg version="1.1" id="Layer_1" xmlns="http://www.w3.org/2000/svg" xmlns:xlink="http://www.w3.org/1999/xlink" x="0px" y="0px"
	 viewBox="0 0 100 100" style="enable-background:new 0 0 100 100;" xml:space="preserve">
<style type="text/css">
	.st0{fill-rule:evenodd;clip-rule:evenodd;fill:#020202;}
</style>
<g>
	<path class="st0" d="M56,46.2c-4.3,0-7.8-3.5-7.7-7.8c0-4.3,3.5-7.8,7.8-7.7c4.3,0,7.7,3.5,7.7,7.7C63.8,42.8,60.4,46.2,56,46.2z"
		/>
	<path class="st0" d="M4.2,90c3.9,8.2,13.1,8.9,21.1,9c2.2,0,4.5-0.1,6.7-0.2c8.9-0.2,17.7-0.2,26.6-0.2c3.9-0.7,7.8-0.8,11.6-0.1
		c1.5,0,3.7,0.1,4,0.1c6.2,0,11.5,0.1,17.1-3.2c0.7-0.4,1.3-0.9,1.8-1.5c2.7-2.7,4.4-6.5,5.1-10.2c0.4-2,0.7-4.2,0.2-6.3
		c-0.3-1.6-2.4-4.3-4-2.7c-1.2,1.2-1.8,3-3.2,4.1c-1.5,1.1-3.4,1.6-5.3,1.5c-2.9-0.1-5.8,0-8.8,0c-0.4,0-0.7-0.1-1.2-0.1
		c0.9-2.2,1.7-4.3,2.5-6.4c1.8-4.6,3.5-9.1,5.3-13.7c0.9-2.2,1.7-4.5,2.6-6.7c0.6-1.6,2-3.6,0.6-5.1c-1.7-1.8-3.9-0.2-4.7,1.6
		c-0.1,0.2-0.8,2.4-0.8,2.4c-1.7-0.2-3.3-0.5-4.8-0.5c-5.6-0.1-11.2,0-16.8,0c-0.5,0-1.1-0.1-1.4-0.4c-2.1-2.3-4.7-3.2-7.6-3.5
		c-3.9-0.4-6.6,1.5-7.6,5.2C41,61.4,38.8,70,36.7,78.5c-0.3,1.4-0.8,1.8-2.3,1.8c-6.7-0.1-13.5-0.2-20.2,0c-2.3,0.1-4.6-0.5-6.3-2
		c-0.9-0.8-1.6-1.7-2.2-2.7c-1-1.6-2.3-1.3-3.4,0.1C-0.9,79.7,2.4,86.3,4.2,90z M78.7,59.5c-0.5,1.3-0.9,2.5-1.4,3.7
		c-4.1-0.6-8.3-1.1-12.3-1.8c-0.7-0.1-1.3-1-2-1.6c0.1-0.1,0.2-0.3,0.2-0.4 M53.4,80c1.4-5.3,2.7-10.6,4.1-16.2
		c2.1,4.8,6.3,4.5,10,5c2.3,0.4,4.7,0.7,7.2,1c-0.2,0.6-0.4,1.1-0.5,1.6c-1,2.6-1.9,5.2-2.9,7.8c-0.2,0.4-0.7,0.9-1.1,0.9
		c-5.5,0.1-11,0-16.6,0C53.7,80.2,53.6,80.1,53.4,80z"/>
</g>
</svg>
