<?xml version="1.0" encoding="utf-8"?>
<!-- Generator: Adobe Illustrator 19.1.0, SVG Export Plug-In . SVG Version: 6.00 Build 0)  -->
<svg version="1.1" id="Layer_1" xmlns="http://www.w3.org/2000/svg" xmlns:xlink="http://www.w3.org/1999/xlink" x="0px" y="0px"
	 viewBox="0 0 100 100" style="enable-background:new 0 0 100 100;" xml:space="preserve">
<style type="text/css">
	.st0{fill-rule:evenodd;clip-rule:evenodd;fill:#020202;}
	.st1{fill:#020202;}
</style>
<g>
	<path class="st0" d="M51.7,44.8c-2.8,2.9-5.4,5.6-8.1,8.4c3.1,1.8,6.4,4,9.9,6c1.1,0.7,1.6,1.3,1.6,2.7c-0.2,6.5-0.2,13.1-0.4,19.6
		c-0.1,3.3-1,4.4-3.4,4.4c-3,0-4.7-1.5-4.7-4.6c0-4.6,0.1-9.2,0.3-13.8c0-1.3-0.3-1.9-1.5-2.5c-3.9-2-7.8-4.1-11.6-6.3
		c-1.4-0.8-2.7-1.9-3.6-3.1c-1.8-2.4-1.9-5.3,0.3-7.7c3.2-3.6,6.8-6.9,10.2-10.3c1.1-1.1,2.3-2.1,3.6-3c4.1-3.1,7.7-2.5,10.6,1.8
		c1.9,2.8,3.5,5.9,5.2,8.9c0.5,1,1.1,1.3,2.3,1.3c2.4,0,4.9,0.2,7.3,0.5c1.4,0.2,2.6,0.9,2.5,2.7c-0.1,1.7-1,3-2.7,3
		c-3.9,0.1-7.9,0-11.8-0.3c-0.8-0.1-1.8-1-2.3-1.8C54,48.7,52.9,46.8,51.7,44.8z"/>
	<path class="st0" d="M68.2,29c-0.1,3.7-3.5,6.7-7.5,6.6c-4-0.1-7.4-3.3-7.3-7.1c0.1-3.8,3.5-6.7,7.7-6.6
		C65.2,22.2,68.3,25.3,68.2,29z"/>
	<path class="st1" d="M19.8,98.3C9.2,98.1,0.7,89.2,1,78.6C1.2,67.9,10,59.5,20.7,59.7c10.7,0.2,19.1,9.1,18.9,19.7
		C39.3,90,30.5,98.5,19.8,98.3z M20.6,64.3c-8.1-0.2-14.8,6.3-15,14.3c-0.2,8.1,6.3,14.8,14.3,15c8.1,0.2,14.8-6.3,15-14.3
		C35.1,71.2,28.6,64.5,20.6,64.3z"/>
	<path class="st1" d="M79.3,99.1c-10.6-0.2-19.1-9.1-18.9-19.7c0.2-10.6,9.1-19.1,19.7-18.9c10.6,0.2,19.1,9.1,18.9,19.7
		C98.8,90.9,90,99.4,79.3,99.1z M80.1,65.2c-8.1-0.2-14.8,6.3-15,14.3c-0.2,8.1,6.3,14.8,14.3,15c8.1,0.2,14.8-6.3,15-14.3
		C94.6,72.1,88.1,65.4,80.1,65.2z"/>
	<path class="st1" d="M79.7,82.1c-1.1,0-2-0.8-2.2-1.9l-4.4-22.5l-6.1,3.8c-1.1,0.7-2.5,0.4-3.2-0.7c-0.7-1.1-0.4-2.5,0.7-3.2
		l8.9-5.6c0.6-0.4,1.4-0.5,2.1-0.2c0.7,0.3,1.2,0.9,1.3,1.7l5,25.8c0.2,1.2-0.6,2.5-1.8,2.7C80,82.1,79.9,82.1,79.7,82.1z"/>
</g>
</svg>
