<?xml version="1.0" encoding="utf-8"?>
<!-- Generator: Adobe Illustrator 19.1.0, SVG Export Plug-In . SVG Version: 6.00 Build 0)  -->
<svg version="1.1" id="Layer_1" xmlns="http://www.w3.org/2000/svg" xmlns:xlink="http://www.w3.org/1999/xlink" x="0px" y="0px"
	 viewBox="0 0 100 100" style="enable-background:new 0 0 100 100;" xml:space="preserve">
<style type="text/css">
	.st0{fill-rule:evenodd;clip-rule:evenodd;fill:#020202;}
</style>
<g>
	<path class="st0" d="M20.4,28.8c-2.9-3-5.7-5.9-8.5-8.8c-1.3-1.3-3-1.6-4.5-0.8c-1.4,0.8-2.2,2.4-1.8,4c0.1,0.6,0.5,1.2,0.9,1.7
		c3.5,3.7,7,7.3,10.5,10.9c1.8,1.8,4.7,1.7,6.7,0c2-1.7,3.9-3.4,5.8-5.1c0.2-0.2,0.5-0.4,0.8-0.6c0.2,0.3,0.4,0.6,0.6,0.9
		c3.9,6.4,7.7,12.9,11.6,19.3c0.4,0.7,0.4,1.2-0.2,1.8c-3.2,3.2-6.3,6.4-9.5,9.7c-1.6,1.6-2,3.5-1.6,5.7c0.6,2.8,1.1,5.7,1.5,8.5
		c0.9,5.9,1.8,11.9,2.7,17.8c0.5,2.9,2.9,5,5.4,4.7c2.8-0.4,4.9-3.1,4.5-6.2c-0.5-3.9-1.1-7.8-1.7-11.7c-0.5-3.6-1.1-7.3-1.7-10.9
		c0-0.3,0-0.8,0.2-1c3.3-3.2,6.6-6.3,9.9-9.5c0.7,1.1,1.6,2.5,2.5,3.9c1.4,2,2.8,4,4.3,5.9c1.5,1.9,3.5,2.6,5.8,2.1
		c8.5-1.5,16.9-3.1,25.4-4.7c2.8-0.5,4.7-2.7,4.5-5c-0.2-2.3-2.6-4.3-5.2-4.2c-2.2,0.1-4.3,0.5-6.5,0.9c-5,0.9-10,1.9-15.1,2.8
		c-0.7,0.1-0.9-0.2-1.2-0.7c-6.6-10.8-13.3-21.6-20-32.3c-0.5-0.9-1.1-1.8-1.7-2.9c1.7,0.1,3.2,0.4,4.7,0.3c2.5-0.2,3.9,1.1,5.4,2.8
		c2.3,2.5,4.7,4.9,7.1,7.3c1.7,1.7,3.8,1.8,5.3,0.4c1.6-1.4,1.6-3.6,0-5.3c-3.5-3.7-6.9-7.3-10.6-10.8c-0.8-0.8-2.2-1.2-3.4-1.3
		c-5.1-0.5-10.1-0.9-15.2-1.2c-3.4-0.2-6.2,1.4-8.6,3.6c-2.7,2.4-5.4,4.8-8.1,7.2C21.2,28.1,20.8,28.4,20.4,28.8z"/>
	<path class="st0" d="M17,10.5c0,4.9,4.1,8.9,8.9,8.9c4.9,0,8.8-4,8.8-9c0-4.9-4-8.9-8.9-8.9C20.9,1.6,16.9,5.6,17,10.5z"/>
</g>
</svg>
