<?xml version="1.0" encoding="utf-8"?>
<!-- Generator: Adobe Illustrator 19.1.0, SVG Export Plug-In . SVG Version: 6.00 Build 0)  -->
<svg version="1.1" id="Layer_1" xmlns="http://www.w3.org/2000/svg" xmlns:xlink="http://www.w3.org/1999/xlink" x="0px" y="0px"
	 viewBox="0 0 100 100" style="enable-background:new 0 0 100 100;" xml:space="preserve">
<style type="text/css">
	.st0{fill-rule:evenodd;clip-rule:evenodd;fill:#020202;}
</style>
<g>
	<path class="st0" d="M47.6,37.4c-0.3,1.2-0.7,2.4-0.8,3.7c0,1.2,0.4,2.4,0.6,3.6c3.8,15.7,7.6,31.4,11.5,47
		c0.8,3.3-0.9,6.1-3.9,6.9c-3,0.7-5.8-1.1-6.6-4.3c-2.1-8.8-4.2-17.6-6.2-26.5c-0.8-3.4-1.6-6.9-2.4-10.3c-0.1-0.2-0.1-0.4-0.3-0.8
		c-0.6,2.3-1.1,4.4-1.6,6.6c-2.5,10.4-4.9,20.8-7.4,31.2c-0.7,3.1-3.5,4.9-6.4,4.3c-3.1-0.7-4.8-3.5-4.1-6.7
		c2.8-12.2,5.7-24.4,8.5-36.6c2.4-10.3,4.8-20.6,7.2-30.9c0.8-3.2,2.5-5.8,5.9-6.7c4.3-1.1,8.6,1.4,9.7,5.7c1,3.9,2,7.9,3,11.8
		c0.1,0.6,0.4,0.9,1,1.1c3.3,0.8,6.6,1.6,9.8,2.4c2.3,0.6,3.5,2.5,2.9,4.6c-0.5,2-2.5,3.1-4.7,2.5c-4-1-8.1-2-12.1-3
		c-1.6-0.4-2.6-1.4-3-3c-0.2-0.9-0.4-1.7-0.6-2.6C47.7,37.4,47.6,37.4,47.6,37.4z"/>
	<path class="st0" d="M33,17.5c-0.4,1.6-0.8,3.4-1.2,5.2c-1.3,5.6-2.7,11.2-4,16.9c-0.4,1.8-1.4,2.5-3.3,2c-1.8-0.4-3.7-0.9-5.5-1.3
		c-1.7-0.4-2.3-1.4-1.9-3.2c1.7-7.3,3.4-14.5,5.2-21.8c0.3-1.3,1.3-2,2.6-1.7c2.1,0.5,4.2,1,6.4,1.5C32.3,15.4,33,16.2,33,17.5z"/>
	<path class="st0" d="M62.8,96.8c0.4-2.2,0.8-4.6,1.2-6.9c1.5-8.3,3-16.6,4.5-24.9c1.6-9.1,3.3-18.1,4.9-27.2
		c0.6-3.3,1.2-6.7,1.8-10c0.1-0.5,0.2-1,0.4-1.4c0.4-0.8,1.3-1.2,2.1-0.9c0.7,0.2,1.3,1.1,1.1,1.9c-1.1,6-2.2,12-3.2,18
		c-1.3,7.3-2.6,14.5-3.9,21.8c-1.4,8-2.9,15.9-4.3,23.9c-0.4,2-0.7,4-1.1,6c-0.2,1.1-1,1.8-2,1.6C63.5,98.6,62.8,97.8,62.8,96.8z"/>
	<path class="st0" d="M38.2,8.7c0-4.3,3.4-7.7,7.7-7.7c4.3,0,7.6,3.4,7.6,7.8c0,4.2-3.4,7.6-7.6,7.6C41.6,16.4,38.2,13,38.2,8.7z"/>
</g>
</svg>
