<?xml version="1.0" encoding="utf-8"?>
<!-- Generator: Adobe Illustrator 19.1.0, SVG Export Plug-In . SVG Version: 6.00 Build 0)  -->
<svg version="1.1" id="Layer_1" xmlns="http://www.w3.org/2000/svg" xmlns:xlink="http://www.w3.org/1999/xlink" x="0px" y="0px"
	 viewBox="0 0 100 100" style="enable-background:new 0 0 100 100;" xml:space="preserve">
<style type="text/css">
	.st0{fill-rule:evenodd;clip-rule:evenodd;fill:#020202;}
</style>
<path class="st0" d="M98.4,87.9c-12.2,7.5-24.8,8.8-37.9,2.9c-5-2.3-9.8-5.1-14.5-8C32.3,74.4,17.9,68.7,1.1,70
	c7.2-6.3,15.6-9.8,24.5-7c10.5,3.2,20.7,7.7,30.4,12.8C69.4,82.7,82.6,89.3,98.4,87.9z"/>
<path class="st0" d="M69.9,46.4C72,56.7,74,66.5,76,76.3c-0.8,0.5-1.6,1-2.4,1.5c-11.2-5.6-22.4-11.1-35.3-17.5
	c7.8-1.3,13.8-2.3,20.4-3.4c-1.3-4.9-2.4-9.3-3.7-13.8c-1.4-4.7,0.6-7.2,5.2-7.2c5.3,0,10.6,0.1,15.9,0.6c3.2,0.3,9.2,1.9,8.3,6.3
	C83.2,48.5,73.6,46.5,69.9,46.4z"/>
<path class="st0" d="M7.9,74.2c8.3-0.1,17.3,2.9,24.7,6.4c12.2,5.6,20,14.3,33.8,15.7c-5.5,2.5-12,3.8-17.9,1.9
	C39.5,95.2,32.2,87.5,24,82.7C20.3,80.6,11.9,74.1,7.9,74.2z"/>
<path class="st0" d="M95.1,72c-1.7,4.3-6.7,6.3-11.3,4.5c-4.6-1.8-6.9-6.7-5.3-11c1.7-4.3,6.7-6.2,11.3-4.4
	C94.5,62.8,96.8,67.7,95.1,72z"/>
</svg>
