<?xml version="1.0" encoding="utf-8"?>
<!-- Generator: Adobe Illustrator 19.1.0, SVG Export Plug-In . SVG Version: 6.00 Build 0)  -->
<svg version="1.1" id="Layer_1" xmlns="http://www.w3.org/2000/svg" xmlns:xlink="http://www.w3.org/1999/xlink" x="0px" y="0px"
	 viewBox="0 0 100 100" style="enable-background:new 0 0 100 100;" xml:space="preserve">
<style type="text/css">
	.st0{fill-rule:evenodd;clip-rule:evenodd;fill:#020202;}
</style>
<g>
	<path class="st0" d="M78.7,92.2c-0.7-1.5-1.4-3-2.2-4.4c-2.4-4-4.7-8.1-7.2-12c-1.2-1.9-1.9-3.9-2.4-6c-2.6-11.5-5.2-23-7.8-34.5
		c0-0.1,0-0.2,0-0.3c0.2,0.2,0.4,0.3,0.6,0.4c1.5,1.2,3,2.4,4.4,3.6c0.3,0.3,0.6,0.7,0.7,1.1c1,4.2,1.9,8.4,2.8,12.6
		c0.6,2.8,3.3,4.1,5.6,2.7c1.3-0.8,1.9-2.3,1.6-3.9c-1.1-5.2-2.3-10.3-3.5-15.5c-0.2-1-0.8-1.8-1.5-2.4c-5.2-4.2-10.4-8.4-15.6-12.6
		c-4.2-3.4-10.2-2-12.7,2.8c-2.5,4.9-4.9,9.8-7.4,14.7c-0.2,0.4-0.6,0.9-1,1.2c-3.1,2.2-6.2,4.3-9.3,6.4c-1.1,0.8-2.1,1.6-2.5,2.9
		c0,0.5,0,1,0,1.5c1.2,3.4,4.2,3.5,6.5,1.8c3.5-2.6,7.1-4.9,10.6-7.4c0.7-0.5,1.3-1.2,1.7-2c1-1.7,1.8-3.4,2.7-5.3
		c0.1,0.3,0.2,0.4,0.2,0.6c1.1,4.8,2.2,9.6,3.3,14.4c0.2,0.7,0,1.1-0.4,1.7c-4.4,5.1-8.7,10.3-13.1,15.4c-0.7,0.8-1.1,1.8-1.3,2.8
		c-1.2,6.4-2.5,12.9-3.7,19.3c-0.7,3.5,1.8,6.7,5.2,6.7c2.8,0,5-1.9,5.6-5c1.1-5.9,2.2-11.8,3.4-17.7c0.1-0.4,0.3-0.8,0.6-1.1
		c2.5-2.8,5.1-5.6,7.6-8.4c1.1-1.2,2.3-2.5,3.5-3.8c0.1,0.3,0.2,0.5,0.2,0.8c0.6,2.6,1.1,5.1,1.7,7.7c0.5,2.3,0.9,4.5,2.1,6.6
		c3.6,5.9,7.1,11.9,10.6,17.8c0.2,0.4,0.4,0.7,0.7,1.1c2,2.6,5.8,2.8,8.1,0.4c0.7-0.8,1.1-1.9,1.6-2.9
		C78.7,93.4,78.7,92.8,78.7,92.2z"/>
	<path class="st0" d="M45.3,1.5c-1,0.4-2.2,0.7-3.1,1.3c-3.4,2.1-4.6,6.2-3,10.1c1.4,3.4,5.4,5.3,9.1,4.5c3.5-0.8,6.2-4.1,6.2-7.7
		c0-3.8-2.5-7.1-6.1-8c-0.3-0.1-0.6-0.2-0.8-0.3C46.8,1.5,46,1.5,45.3,1.5z"/>
</g>
</svg>
